HIERARCHY
ROOT SpineBase
{
  OFFSET 0.000000 0.000000 0.000000
  CHANNELS 6 Xposition Yposition Zposition Zrotation Xrotation Yrotation
  JOINT SpineMid
  {
    OFFSET -0.000000 26.195047 0.000000
    CHANNELS 3 Zrotation Xrotation Yrotation
    JOINT SpineShoulder
    {
      OFFSET -0.109749 19.441514 -0.769375
      CHANNELS 3 Zrotation Xrotation Yrotation
      JOINT Neck
      {
        OFFSET -0.042515 6.426994 -0.504773
        CHANNELS 3 Zrotation Xrotation Yrotation
        JOINT Head
        {
          OFFSET 2.547995 9.839293 0.945598
          CHANNELS 3 Zrotation Xrotation Yrotation
          End Site
          {
            OFFSET 0 0 0
          }
        }
      }
      JOINT ShoulderLeft
      {
        OFFSET -11.541421 -2.376092 -7.601817
        CHANNELS 3 Zrotation Xrotation Yrotation
        JOINT ElbowLeft
        {
          OFFSET -2.885429 -21.117501 -2.248266
          CHANNELS 3 Zrotation Xrotation Yrotation
          JOINT WristLeft
          {
            OFFSET 7.673134 -19.063409 -7.087719
            CHANNELS 3 Zrotation Xrotation Yrotation
            JOINT HandLeft
            {
              OFFSET 3.676481 -4.619980 -1.681846
              CHANNELS 3 Zrotation Xrotation Yrotation
              JOINT HandTipLeft
              {
                OFFSET 4.137568 -5.292780 -1.360688
                CHANNELS 3 Zrotation Xrotation Yrotation
                End Site
                {
                  OFFSET 0 0 0
                }
              }
              JOINT ThumbLeft
              {
                OFFSET 2.354504 -0.435159 -3.902719
                CHANNELS 3 Zrotation Xrotation Yrotation
                End Site
                {
                  OFFSET 0 0 0
                }
              }
            }
          }
        }
      }
      JOINT ShoulderRight
      {
        OFFSET 12.003283 -3.352953 5.095499
        CHANNELS 3 Zrotation Xrotation Yrotation
        JOINT ElbowRight
        {
          OFFSET 2.235220 -25.210940 2.296299
          CHANNELS 3 Zrotation Xrotation Yrotation
          JOINT WristRight
          {
            OFFSET 1.353031 -17.421316 -11.153245
            CHANNELS 3 Zrotation Xrotation Yrotation
            JOINT HandRight
            {
              OFFSET 0.467848 -2.378254 -5.572857
              CHANNELS 3 Zrotation Xrotation Yrotation
              JOINT HandTipRight
              {
                OFFSET -1.158031 -2.204146 -3.479056
                CHANNELS 3 Zrotation Xrotation Yrotation
                End Site
                {
                  OFFSET 0 0 0
                }
              }
              JOINT ThumbRight
              {
                OFFSET -2.333625 -0.305588 -2.191672
                CHANNELS 3 Zrotation Xrotation Yrotation
                End Site
                {
                  OFFSET 0 0 0
                }
              }
            }
          }
        }
      }
    }
  }
  JOINT HipLeft
  {
    OFFSET -4.441618 1.227343 -5.371803
    CHANNELS 3 Zrotation Xrotation Yrotation
    JOINT KneeLeft
    {
      OFFSET -5.527541 -35.135974 3.038254
      CHANNELS 3 Zrotation Xrotation Yrotation
      JOINT AnkleLeft
      {
        OFFSET -2.915434 -31.324545 7.046828
        CHANNELS 3 Zrotation Xrotation Yrotation
        JOINT FootLeft
        {
          OFFSET 4.426864 -6.159320 0.789655
          CHANNELS 3 Zrotation Xrotation Yrotation
          End Site
          {
            OFFSET 0 0 0
          }
        }
      }
    }
  }
  JOINT HipRight
  {
    OFFSET 4.113984 0.070565 -0.779860
    CHANNELS 3 Zrotation Xrotation Yrotation
    JOINT KneeRight
    {
      OFFSET -1.131832 -34.110147 4.666496
      CHANNELS 3 Zrotation Xrotation Yrotation
      JOINT AnkleRight
      {
        OFFSET -3.690693 -32.456940 6.440576
        CHANNELS 3 Zrotation Xrotation Yrotation
        JOINT FootRight
        {
          OFFSET -1.621167 -4.694139 -5.853966
          CHANNELS 3 Zrotation Xrotation Yrotation
          End Site
          {
            OFFSET 0 0 0
          }
        }
      }
    }
  }
}
MOTION
Frames: 14
Frame Time: 0.033333
19.515941 72.149364 372.433698 0.000000 0.000000 -28.223240 -0.000000 0.000000 28.223240 -0.000000 0.000000 0.000000 -0.000000 0.000000 0.000000 0.000000 0.000000 0.000000 -0.000000 0.000000 0.000000 -0.000000 0.000000 0.000000 -0.000000 0.000000 0.000000 -0.000000 0.000000 0.000000 0.000000 0.000000 0.000000 0.000000 0.000000 0.000000 -0.000000 0.000000 0.000000 -0.000000 0.000000 0.000000 -0.000000 0.000000 0.000000 -0.000000 0.000000 0.000000 0.000000 0.000000 0.000000 0.000000 0.000000 0.000000 -0.000000 0.000000 28.223240 -0.000000 0.000000 0.000000 -0.000000 0.000000 0.000000 0.000000 0.000000 0.000000 -0.000000 0.000000 28.223240 -0.000000 0.000000 0.000000 -0.000000 0.000000 0.000000 0.000000 0.000000 0.000000
19.490812 72.151093 372.427786 -0.092421 -0.017113 -28.319480 0.073241 0.058909 28.319429 -0.000000 0.000000 0.000000 -0.000000 0.000000 0.000000 0.000000 0.000000 0.000000 -0.000000 0.000000 0.000000 0.823921 -0.109513 -0.348743 -2.750915 -1.111990 0.073917 2.545545 0.225131 -0.699053 0.000000 0.000000 0.000000 0.000000 0.000000 0.000000 -0.165171 -1.025551 -0.107377 0.241064 1.837768 0.114759 -0.044702 -3.185106 -0.589040 0.145690 1.483422 0.733219 0.000000 0.000000 0.000000 0.000000 0.000000 0.000000 0.073241 0.058909 28.319429 -0.000000 0.000000 0.000000 -2.147360 -0.709748 -0.808999 0.000000 0.000000 0.000000 0.073241 0.058909 28.319429 -0.000000 0.000000 0.000000 -0.883870 -4.070066 2.584313 0.000000 0.000000 0.000000
19.472791 72.151257 372.427300 -0.170156 -0.041261 -28.428228 0.129995 0.117290 28.428033 -0.000000 0.000000 0.000000 -0.000000 0.000000 0.000000 0.000000 0.000000 0.000000 -0.000000 0.000000 0.000000 1.618451 -0.182381 -0.669193 -4.918298 -2.003118 0.121476 4.559601 0.730740 -1.027971 0.000000 0.000000 0.000000 0.000000 0.000000 0.000000 -0.299936 -1.863336 -0.197170 0.416305 3.363585 0.216518 -0.104272 -5.779958 -1.026504 0.228007 2.725358 1.327261 0.000000 0.000000 0.000000 0.000000 0.000000 0.000000 0.129995 0.117290 28.428033 -0.000000 0.000000 0.000000 -3.813294 -1.114277 -1.357775 0.000000 0.000000 0.000000 0.137146 0.970817 28.459653 -0.413050 -0.746967 -0.034380 -0.971178 -6.972031 3.842141 0.000000 0.000000 0.000000
19.461878 72.149858 372.432241 -0.233235 -0.072439 -28.549420 0.170256 0.175097 28.549013 -0.000000 0.000000 0.000000 0.830656 -0.054742 -0.065384 0.000000 0.000000 0.000000 -0.828153 0.008353 0.087003 3.209200 -0.232626 -1.048293 -6.468931 -2.649102 0.160733 6.034762 1.496202 -0.973484 0.000000 0.000000 0.000000 0.000000 0.000000 0.000000 -0.402829 -2.509817 -0.267622 0.529260 4.588488 0.308415 -0.169247 -7.789222 -1.309721 0.232736 3.765101 1.784351 0.000000 0.000000 0.000000 0.000000 0.000000 0.000000 0.170256 0.175097 28.549013 -0.000000 0.000000 0.000000 -4.939008 -1.211239 -1.603859 0.000000 0.000000 0.000000 0.181995 1.322194 28.592080 -0.559332 -1.001573 -0.048110 -0.348872 -8.565499 3.714457 0.000000 0.000000 0.000000
19.458072 72.146893 372.442609 -0.281682 -0.110646 -28.682956 0.194012 0.232264 28.682290 -0.000000 0.000000 0.000000 1.018863 -0.043748 -0.086404 0.000000 0.000000 0.000000 -1.062034 -0.014769 0.114810 4.172614 -0.215371 -1.343179 -7.354589 -3.019581 0.206387 6.940355 2.528361 -0.505439 0.000000 0.000000 0.000000 0.000000 0.000000 0.000000 -0.472791 -2.963000 -0.317419 0.582317 5.521678 0.392750 -0.232641 -9.213874 -1.433511 0.149758 4.632047 2.101931 0.000000 0.000000 0.000000 0.000000 0.000000 0.000000 0.194012 0.232264 28.682290 -0.000000 0.000000 0.000000 -5.483844 -0.998934 -1.519947 0.000000 0.000000 0.000000 0.211651 1.572127 28.733467 -0.659679 -1.166374 -0.058169 0.974275 -8.781691 2.106237 0.000000 0.000000 0.000000
19.461373 72.142365 372.458402 -0.315517 -0.155883 -28.828692 0.201251 0.288702 28.827756 -0.000000 0.000000 0.000000 1.162608 -0.018093 -0.107150 0.000000 0.000000 0.000000 -1.275540 -0.050643 0.141952 5.081134 -0.152908 -1.613105 -7.503994 -3.073000 0.268388 7.211817 3.861022 0.424398 0.000000 0.000000 0.000000 0.000000 0.000000 0.000000 -0.509185 -3.222228 -0.345710 0.576964 6.170941 0.471128 -0.290357 -10.048062 -1.390119 -0.022928 5.336283 2.270263 0.000000 0.000000 0.000000 0.000000 0.000000 0.000000 0.201251 0.288702 28.827756 -0.000000 0.000000 0.000000 -5.424746 -0.472913 -1.094972 0.000000 0.000000 0.000000 0.226720 1.714318 28.883466 -0.711028 -1.235939 -0.063824 3.080294 -7.600311 -1.111289 0.000000 0.000000 0.000000
19.498705 72.132890 372.501617 -0.299717 -0.231426 -29.030970 0.149757 0.347795 29.029910 -0.000000 0.000000 0.000000 1.219335 -0.012939 -0.114015 0.000000 0.000000 0.000000 -1.502146 -0.144827 0.177530 6.020764 0.235446 -1.806057 -6.983369 -3.951550 -0.516121 8.698806 5.316343 0.951497 0.000000 0.000000 0.000000 0.000000 0.000000 0.000000 -0.358574 -2.694638 -0.279525 0.211572 5.736519 0.580478 -0.304750 -10.197267 -1.001953 0.284976 7.161689 0.632068 0.000000 0.000000 0.000000 0.000000 0.000000 0.000000 0.149757 0.347795 29.029910 -0.000000 0.000000 0.000000 -4.209280 1.845896 0.879795 0.000000 0.000000 0.000000 0.141566 1.574870 29.074865 -0.589209 -1.076407 -0.050352 8.186651 -4.600591 -8.961122 0.000000 0.000000 0.000000
19.515559 72.131934 372.535719 -0.298443 -0.293389 -29.182708 0.117511 0.401666 29.181532 -0.000000 0.000000 0.000000 1.185673 0.010384 -0.117061 0.000000 0.000000 0.000000 -1.620179 -0.186095 0.194956 7.105207 0.460276 -2.111863 -6.357170 -3.020164 0.160359 8.548379 8.675594 3.403871 0.000000 0.000000 0.000000 0.000000 0.000000 0.000000 -0.271349 -2.458379 -0.248100 -0.029396 5.606092 0.671234 -0.074894 -9.947058 -1.248662 -0.843534 10.742896 0.407795 0.000000 0.000000 0.000000 0.000000 0.000000 0.000000 0.117511 0.401666 29.181532 -0.000000 0.000000 0.000000 -3.292809 2.676497 1.616831 0.000000 0.000000 0.000000 0.157776 1.535941 29.229177 -0.589067 -0.970171 -0.053313 10.882702 -4.949593 -12.467306 0.000000 0.000000 0.000000
19.515244 72.126688 372.551139 -0.316548 -0.332190 -29.374101 0.112914 0.444750 29.372745 -0.000000 0.000000 0.000000 1.153259 0.074614 -0.131244 0.000000 0.000000 0.000000 -1.830319 -0.261063 0.225943 7.777395 0.335222 -2.388659 -2.570587 0.015358 1.084745 1.369324 12.975866 9.029814 0.000000 0.000000 0.000000 0.000000 0.000000 0.000000 -0.157340 -2.148729 -0.207483 -0.229547 5.357822 0.702177 -0.183937 -9.044285 -0.572486 -2.312785 7.430784 3.738446 0.000000 0.000000 0.000000 0.000000 0.000000 0.000000 0.112914 0.444750 29.372745 -0.000000 0.000000 0.000000 -1.533501 3.580058 2.458357 0.000000 0.000000 0.000000 0.257237 1.532353 29.431413 -0.660178 -0.876299 -0.066207 13.817838 -2.830259 -17.119951 0.000000 0.000000 0.000000
19.520171 72.111949 372.567209 -0.347771 -0.381450 -29.477896 0.115051 0.503201 29.476233 -0.000000 0.000000 0.000000 1.277477 0.221525 -0.183107 0.000000 0.000000 0.000000 -1.964143 -0.313677 0.246110 8.291619 0.160496 -2.631555 2.643126 3.639960 1.520203 -5.663460 14.481267 12.359411 0.000000 0.000000 0.000000 0.000000 0.000000 0.000000 -0.157296 -2.183007 -0.210554 -0.293040 5.642129 0.767796 -0.265587 -6.044774 0.459600 -3.457222 4.817437 4.395022 0.000000 0.000000 0.000000 0.000000 0.000000 0.000000 0.115051 0.503201 29.476233 -0.000000 0.000000 0.000000 0.481007 4.371031 3.191572 0.000000 0.000000 0.000000 0.409981 1.452743 29.547702 -0.724867 -0.680574 -0.080808 17.256427 0.506151 -22.713055 0.000000 0.000000 0.000000
19.529197 72.089524 372.575442 -0.374325 -0.426891 -29.569634 0.114919 0.556010 29.567682 -0.644914 -0.522551 -0.057031 2.142127 0.909619 -0.212083 0.000000 0.000000 0.000000 -1.376257 0.192569 0.323302 9.397135 -0.060646 -3.096446 3.633901 6.644439 2.897438 -6.350151 9.981110 9.176280 0.000000 0.000000 0.000000 0.000000 0.000000 0.000000 0.262869 -1.953976 -0.207772 0.118513 6.407994 0.712677 -0.879568 -4.069284 2.001897 -3.319660 3.071208 2.973866 0.000000 0.000000 0.000000 0.000000 0.000000 0.000000 0.114919 0.556010 29.567682 -0.000000 0.000000 0.000000 1.443225 6.179213 4.540540 0.000000 0.000000 0.000000 0.167181 1.698312 29.617942 -0.610035 -0.967201 -0.056437 16.456990 3.674576 -22.402209 0.000000 0.000000 0.000000
19.489067 72.081972 372.519113 -0.445253 -0.410084 -29.662609 0.183971 0.576690 29.660090 -0.643154 -0.568140 -0.057440 2.252439 1.176759 -0.286354 0.000000 0.000000 0.000000 -1.542018 0.192528 0.348690 10.111267 -0.166253 -3.370741 3.551642 7.158584 3.158802 -8.221000 11.085369 10.501157 0.000000 0.000000 0.000000 0.000000 0.000000 0.000000 -0.103679 -2.426937 -0.294255 0.796443 7.411551 0.587555 -2.441056 -3.305826 5.134699 -0.592938 -2.145982 -0.760639 0.000000 0.000000 0.000000 0.000000 0.000000 0.000000 0.183971 0.576690 29.660090 -0.000000 0.000000 0.000000 1.282745 5.374318 3.960137 0.000000 0.000000 0.000000 0.433741 1.629903 29.730085 -0.739239 -0.790683 -0.079906 10.855408 6.540752 -15.752309 0.000000 0.000000 0.000000
19.424501 72.105430 372.428365 -0.542168 -0.360196 -29.832864 0.291151 0.582166 29.829681 -0.702334 -0.583606 -0.062577 2.529673 1.436949 -0.374377 0.000000 0.000000 0.000000 -1.533691 0.247896 0.354679 10.719336 -0.246921 -3.574005 3.145983 4.236052 1.483231 -8.718949 19.391026 16.683865 0.000000 0.000000 0.000000 0.000000 0.000000 0.000000 -0.567175 -3.177502 -0.421831 1.611440 8.380186 0.469816 -3.264875 -1.615485 6.634792 1.839743 -7.014107 -4.481320 0.000000 0.000000 0.000000 0.000000 0.000000 0.000000 1.104764 0.198497 29.984721 -0.512952 0.738937 -0.157275 0.979955 4.426685 3.266142 0.000000 0.000000 0.000000 0.844577 2.086016 29.950841 -1.230451 -1.026554 -0.145071 4.589330 -1.240301 -5.391777 0.000000 0.000000 0.000000
19.328523 72.134851 372.311760 -0.687383 -0.280438 -29.843789 -0.229205 0.015266 29.807734 0.055032 -0.388051 -0.035488 2.902040 1.600165 -0.449735 0.000000 0.000000 0.000000 -1.383338 0.280528 0.349910 9.755672 -0.468390 -3.271788 1.612339 2.220459 0.755685 -6.999046 27.788958 22.110538 0.000000 0.000000 0.000000 0.000000 0.000000 0.000000 -0.661528 -3.694885 -0.486682 2.047413 9.227562 0.371493 -4.071658 -3.359875 7.880660 5.532067 -7.474595 -10.307712 0.000000 0.000000 0.000000 0.000000 0.000000 0.000000 1.562559 0.112636 30.046773 -0.720593 0.962854 -0.207680 1.286195 3.329260 2.509723 0.000000 0.000000 0.000000 1.454600 2.120620 30.011661 -1.632092 -0.829985 -0.207274 3.274089 0.262215 -4.209872 0.000000 0.000000 0.000000
